<?xml version="1.0" encoding="utf-8"?>
<!-- Generator: Adobe Illustrator 27.9.0, SVG Export Plug-In . SVG Version: 6.00 Build 0)  -->
<svg version="1.1" id="Слой_1" xmlns="http://www.w3.org/2000/svg" xmlns:xlink="http://www.w3.org/1999/xlink" x="0px" y="0px"
	 viewBox="0 0 17 22" style="enable-background:new 0 0 17 22;" xml:space="preserve">
<style type="text/css">
	.st0{fill:#1D1D1B;}
</style>
<path class="st0" d="M15,21.9H2c-1,0-1.9-0.9-1.9-1.9V9C0.1,8,1,7.1,2,7.1h1.6V5c0-2.7,2.2-4.9,4.9-4.9c2.7,0,4.9,2.2,4.9,4.9v2.1
	H15c1,0,1.9,0.9,1.9,1.9v11C16.9,21,16,21.9,15,21.9z M2,8.9c-0.1,0-0.1,0-0.1,0.1v11c0,0.1,0,0.1,0.1,0.1h13c0.1,0,0.1,0,0.1-0.1V9
	c0-0.1,0-0.1-0.1-0.1H2z M5.4,7.1h6.2V5c0-1.7-1.4-3.1-3.1-3.1C6.8,1.9,5.4,3.3,5.4,5V7.1z"/>
</svg>
