<?xml version="1.0" encoding="utf-8"?>
<!-- Generator: Adobe Illustrator 27.9.0, SVG Export Plug-In . SVG Version: 6.00 Build 0)  -->
<svg version="1.1" id="Слой_1" xmlns="http://www.w3.org/2000/svg" xmlns:xlink="http://www.w3.org/1999/xlink" x="0px" y="0px"
	 viewBox="0 0 24 22" style="enable-background:new 0 0 24 22;" xml:space="preserve">
<path d="M12,21l-0.4-0.2C0.5,14.6-0.1,8.6,0.1,6.3c0.3-2.8,2.3-5.2,5.1-5.9c2.5-0.7,4.9,0,6.8,1.8c1.9-1.8,4.3-2.5,6.8-1.8
	c2.7,0.8,4.7,3.1,5.1,5.9c0.3,2.3-0.3,8.3-11.4,14.5L12,21z M7.1,1.9C6.6,1.9,6.2,2,5.7,2.1c-2,0.6-3.5,2.3-3.8,4.4
	C1.7,8.4,2.3,13.4,12,19c9.7-5.5,10.3-10.5,10.1-12.5c-0.2-2.1-1.7-3.8-3.8-4.4c-2.1-0.6-4.2,0.2-5.6,2L12,5l-0.7-0.9
	C10.2,2.7,8.7,1.9,7.1,1.9z"/>
</svg>
