<?xml version="1.0" encoding="utf-8"?>
<!-- Generator: Adobe Illustrator 27.9.0, SVG Export Plug-In . SVG Version: 6.00 Build 0)  -->
<svg version="1.1" id="Слой_1" xmlns="http://www.w3.org/2000/svg" xmlns:xlink="http://www.w3.org/1999/xlink" x="0px" y="0px"
	 viewBox="0 0 15 22" style="enable-background:new 0 0 15 22;" xml:space="preserve">
<g id="Vector">
	<path d="M7.5,10.8c-2.9,0-5.2-2.4-5.2-5.3s2.3-5.3,5.2-5.3s5.2,2.4,5.2,5.3S10.4,10.8,7.5,10.8z M7.5,1.9c-1.9,0-3.4,1.6-3.4,3.5
		S5.6,9,7.5,9c1.9,0,3.4-1.6,3.4-3.5S9.4,1.9,7.5,1.9z"/>
	<path d="M12.9,21.9H2.1c-1.1,0-2-0.9-2-2v-4.4C0.1,11.9,2.9,9,6.4,9h2.2c3.5,0,6.3,2.9,6.3,6.5v4.4C14.9,21,14,21.9,12.9,21.9z
		 M6.4,10.8c-2.5,0-4.5,2.1-4.5,4.7v4.4c0,0.1,0.1,0.2,0.2,0.2h10.8c0.1,0,0.2-0.1,0.2-0.2v-4.4c0-2.6-2-4.7-4.5-4.7H6.4z"/>
</g>
</svg>
